<svg id="fd79e8f6-8d50-4f3b-b707-2fbb52acb3c7" data-name="Capa 1" xmlns="http://www.w3.org/2000/svg" viewBox="0 0 996.14 918.28"><defs><style>.f04410be-f88f-4b72-99b6-e6e2942589e9,.f5972510-6ef6-417e-8dfc-edb58552e86e{fill:#fff;}.f5972510-6ef6-417e-8dfc-edb58552e86e{font-size:174px;font-family:Nunito-Bold, Nunito;font-weight:700;}.f93b73ca-4a8f-42e3-b541-557d05303b7e{letter-spacing:-0.01em;}</style></defs><path class="f04410be-f88f-4b72-99b6-e6e2942589e9" d="M512,280.05c-7.41,7.38-40,40.62-55.12,82.78-7.78,21.69-10.93,45.7-11.13,47.26a200.69,200.69,0,0,0-1.6,23.9,146.28,146.28,0,0,0,1.66,23.12c2.29,15.43,7.51,30.47,14,44.4,1.5,3.55,3.32,6.94,4.87,10.42,1.8,3.38,3.3,6.88,5.11,10.22.86,1.7,1.73,3.39,2.54,5.11s1.82,3.34,2.65,5.06l1.28,2.56,1.38,2.5,2.68,5.08c1.9,3.32,3.65,6.78,5.73,10,1,1.66,1.93,3.37,3,5s2.13,3.25,3.14,5c4.24,6.59,8.76,13.13,13.54,19.69,9.64,13.11,20.5,25.84,32.41,39.74v0A2.49,2.49,0,0,1,536,626c-18.61-2.2-36.18-9.46-52.26-19.35A164,164,0,0,1,461,589.42q-5.29-4.84-10.17-10.15c-1.66-1.74-3.23-3.56-4.74-5.42l-4.6-5.58a144.91,144.91,0,0,1-25.28-51.58c-1.25-4.64-2.22-9.34-3.19-14s-1.6-9.42-2.19-14.15c-1.22-9.43-1.9-18.88-2.23-28.38a183.32,183.32,0,0,1,1.45-28.58,232.77,232.77,0,0,1,5.23-27.37,219.8,219.8,0,0,1,20.37-51.08c24.89-45.91,68.8-93.67,77-88.3C514.31,265.86,515.21,269.32,512,280.05Z"/><path class="f04410be-f88f-4b72-99b6-e6e2942589e9" d="M392.77,523.49c8.46,39.84,24,62.55,24,62.55,22.78,33.37,43.14,63.2,84.28,87.85,12.19,7.3,38.58,22.77,76.75,28.89,16.3,2.62,66.57,10,120.36-16.9,72.8-36.33,95.17-106.89,98.06-116.55,2.71-9.07,24.75-87.16-20.07-154.4-6.67-10-25.9-38.07-62.87-55.71a144.88,144.88,0,0,0-60.88-14.35c-10.75,0-42.29.44-73.5,21.58-38.63,26.15-50,65.89-53.2,80.49-2.74,12.4-9.16,43.7,6.39,77.21a109.81,109.81,0,0,0,39.1,45.46,93.49,93.49,0,0,0,37.77,15.06,89.75,89.75,0,0,0,45-4.44c8.13-3.14,28.41-12.43,41.82-34.83,2.43-4.06,19.74-34.08,7.64-68.15-2.42-6.81-9.8-26.62-30.56-38.19-5-2.79-22.22-12.38-43.21-6.52-18.87,5.27-28.6,19.62-31.53,24.45-2.69,4.45-8.37,14.11-7.8,27.4.15,3.29,1.32,21.7,16.56,32.78,2.76,2,11.56,8.2,23.74,7.2,2.88-.23,15.19-1.24,22.46-11.64,5.53-7.92,4.77-16.45,4.49-19.18-.38-3.6-1.26-12-8-16.69a17.54,17.54,0,0,0-9.74-3,15.4,15.4,0,0,0-8.5,2.46c-1.34.88-5,3.32-5.75,7.32-.55,3.07,1.2,4.05.64,7.91-.2,1.35-.58,3.91-2.41,5.48-3.54,3-11.12,1.28-13.7-3-.36-.6-.93-1.74-.94-6.38,0-3.19,0-7.9,1.17-11.86,3.28-10.92,15.75-16.34,17.57-17.1,2-.83,14.09-5.68,27.07.19,13.15,6,17.49,18.54,18.94,22.74,6.32,18.32-2.38,34.5-4.41,38-1.93,3.35-11,18.14-29.1,22.62-23.62,5.82-42.5-10.84-46.89-14.72a61.35,61.35,0,0,1-19-31.25c-7.45-31.05,13.63-55.78,16.79-59.36,18.1-20.53,41.94-23.44,46.43-23.91,29.49-3.05,50.17,13.56,55.73,18,20,16.12,26.38,36.85,28.45,44,10.64,36.66-5.49,68-11.25,77.89-5.09,8.74-21.82,34.48-54.55,45.83-50.46,17.51-98.31-13.25-115.38-32.08a132.23,132.23,0,0,1-20.5-30.32c-5.36-11.81-8.05-17.71-8.91-22.78a21,21,0,0,0-2.46-7.29,22.81,22.81,0,0,0-7.33-7.57c-13.14-8.78-31.67-11.43-31.67-11.43-19.7-2.81-42.32-2.05-55.33,4.17a93.82,93.82,0,0,0-14.23,8.91c-2.85,2.15-4.3,3.26-5.48,4.86C390.8,510.72,391.63,518.14,392.77,523.49Z"/><path class="f04410be-f88f-4b72-99b6-e6e2942589e9" d="M574.28,131.18c-1.8-.48,3.55-26.62,8.14-45.19,2.57-10.38,10-39,21.57-56.9,2.16-3.34,4.66-6.59,9.58-13C619.91,7.84,622,5.77,625.06,4A25.64,25.64,0,0,1,636,.53c1.81-.12,6.34-.21,14.43,3.5s16.16,7.41,21.12,16.32c4.62,8.3,4.14,16.74,3.91,20.73a44.84,44.84,0,0,1-2.21,11.54c-8.85,27.39-33.63,54-33.63,54a230.09,230.09,0,0,1-43.33,36.24c11-11.3,19.6-21.32,25.63-28.75C635.25,97.65,643.53,84.87,650,72.84c11.31-20.93,11.26-28.52,10.34-33.58-.16-.87-2.72-13.95-12.94-20.09-1.77-1.06-5.86-3.51-10.64-2.64a13.26,13.26,0,0,0-6.42,3.35c-11.22,9.92-22.83,33.5-24.16,36.19-9.2,18.67-7.93,15.57-9.58,19.28-5,11.18-6.32,16.49-13.91,36.18C577.62,124.77,575.05,131.38,574.28,131.18Z"/><path class="f04410be-f88f-4b72-99b6-e6e2942589e9" d="M574.84,163.08c-.36-.37,5.64-9.27,15.46-16.89,23.67-18.38,52.45-16.07,56.26-15.72a85.93,85.93,0,0,1,25.51,6.59,93.66,93.66,0,0,1,19.61,11.08,98.38,98.38,0,0,1,26.51-.46c7.54.9,13.69,1.63,20.42,5.27,10.31,5.58,15.76,14.65,18.4,20.25a31.79,31.79,0,0,1,10.53,4.59c3.59,2.41,6.82,4.28,8,7.72,1.34,3.9-.5,7.81-2.3,11.27-9.12,17.55-13.68,26.33-23.45,30.55-2.77,1.2-9.31,3.91-17.18,2.2-2.71-.59-7.38-1.6-11-5.34-1.31-1.35-2.59-3.16-7-8-1.53-1.69-2.43-2.63-3.84-2.88-2.66-.48-5.11,1.94-6.77,3.6a28.69,28.69,0,0,0-5.43,7.86c-3.23,6-9.09,8.69-15.38,11.6-9.74,4.51-18.46,4.26-23.91,4-11.91-.49-20.56-4.35-26.22-6.95a86.42,86.42,0,0,1-21.5-14.3A104.45,104.45,0,0,1,591,194.61a148.14,148.14,0,0,0,15.86,14c14.3,11,29.64,22.68,48.77,21.79a57,57,0,0,0,22.36-6.18,29.33,29.33,0,0,0,8.39-5.87c2.62-2.72,2.36-3.67,6.14-8.39a38,38,0,0,1,7.55-7.65c2.58-1.89,4.24-3.1,6.77-3.61,5-1,9.28,1.57,11.44,2.84,2.72,1.6,2.44,2.18,8.37,7,5.65,4.62,7,5,8,5.07,3.21.29,5.72-1.63,8.72-3.92,2.11-1.61,3-2.73,9.37-11.16,3.4-4.5,5.09-6.77,4.72-8.23-.65-2.54-4-2.57-8.05-5.08-6.2-3.86-4.57-7.75-10.56-13.94-1.24-1.29-10.52-10.64-20.52-9.34-3.18.41-5.08,1.73-9,1.1-4.45-.72-4.79-2.83-8.25-3-5.12-.2-6.43,4.32-11.37,3.88-2.45-.21-4.16-1.5-7-3.64-3.45-2.59-4.47-4.59-7-7.18-3.28-3.42-6.47-5.1-10.48-7.23a55.78,55.78,0,0,0-23.58-6c-14.24-.68-25.81,3.7-31.54,5.86-2.32.88-5.8,2.34-12.8,4.92-6.71,2.49-7.24,2.53-9.42,3.57C579.58,158.22,575.13,163.38,574.84,163.08Z"/><path class="f04410be-f88f-4b72-99b6-e6e2942589e9" d="M548.39,160c.1-.61-6.59-2-13.9-4.1A170.07,170.07,0,0,1,501.68,142c-14-7.85-24.82-13.93-32.45-26.66-3-5.08-7-11.74-7.09-20.61,0-3.37.54-4.67.94-14.65.23-5.86.2-9.29-1-13.44-1.44-4.91-3.48-7.2-4.29-8-1.81-1.87-3.21-2.34-5.24-3.62-4.16-2.62-6.44-5.8-9.21-9.68-3-4.25-7.2-10.07-6.28-16.18.15-1,.54-3.39,2.18-4.21,1.32-.65,2.11.35,4.59.17,2.7-.21,3.1-1.48,5.42-1.42a7.76,7.76,0,0,1,4.12,1.48,12.84,12.84,0,0,1,4.6,5.72c.63,1.4,3.53,5.23,9.33,12.87,6.58,8.67,15.43,12.87,18.42,14.25,6.71,3.1,12.33,3.81,22.71,5.13,10.77,1.37,10,0,15.17,1.21,15.45,3.48,25,15.63,27.87,19.61,4.51,6.3,6.49,12.15,8.47,18,1.07,3.17,2.25,8.85,4.62,20.22,2.56,12.24,2.88,14.84,2.72,18.32A43.23,43.23,0,0,1,563.93,155a28.68,28.68,0,0,0,5.52-8.48c1.79-4.3,2.08-8.07,2.15-13.13.11-7.77.19-13.27-1.07-21.93-1-7.06-2.24-15.43-6.48-25.63-2.8-6.73-5.4-12.81-11.37-18.82a48.72,48.72,0,0,0-12.84-9.12,53.58,53.58,0,0,0-19.51-6.14c-6.39-.67-7.58.49-13.42-.75a44.27,44.27,0,0,1-12.38-4.87c-6-3.18-13.25-7.05-18.58-14.78-3.16-4.6-2.76-6.37-7.31-12.49-2.6-3.49-4.52-6.08-7.56-8.16-6.42-4.39-14.05-4-18.32-3.29a26.21,26.21,0,0,0-12.2-4.79c-6.12-.65-9.87,1.42-16.88-.09A28.33,28.33,0,0,1,406.74,0c1.18,1.89,2.89,4.69,4.91,8.12,5.06,8.56,7.61,12.92,8.84,16.83,1.52,4.87.36,4.41,2.35,13,1.52,6.58,2.29,9.87,4.47,13.67A28.3,28.3,0,0,0,437,62.23c4.8,3,7.37,2.17,9.54,5.18,1.89,2.63,1.53,5.44,1.34,10.27a166.64,166.64,0,0,0,.42,18c.82,9.73,5.37,16.82,8.15,21.15,5.55,8.65,11.86,13,21.07,19.42a135.81,135.81,0,0,0,33,16.51,127.43,127.43,0,0,0,20.85,5.72C539.46,160,548.27,160.71,548.39,160Z"/><path class="f04410be-f88f-4b72-99b6-e6e2942589e9" d="M541.68,165a242.07,242.07,0,0,0-37.45-3.11,204.18,204.18,0,0,0-26.13,1.44c-7,.88-12.84,2-17.27,3A56.31,56.31,0,0,0,439,164c-24,2.22-37.88,19.51-39.83,22a50.82,50.82,0,0,0-10.7,23.15c-3.88,22.85,10.5,40.47,13.09,43.54.62-1.17,5.51-10.32,6.15-11.5l5.86-11c4.86-8.62,11.18-13.83,21.16-22.06,0,0,6.93-5.73,21-13.45a17.71,17.71,0,0,1,8.66-2.52c3.28,0,5.76,1.19,9,2.66a44.87,44.87,0,0,1,9,5.58,8.84,8.84,0,0,0-1.06-3.33,9.12,9.12,0,0,0-3-3.14c-6.3-4.29-9.46-6.43-14.15-7.25-4.88-.84-8.54.15-13.72,1.55-6.78,1.84-11.16,4.35-19.89,9.36-6.25,3.59-10.11,5.83-14.73,9.93a65.65,65.65,0,0,0-7.91,8.35,2.63,2.63,0,0,1-2.26.28c-1.13-.57-1.17-2.43-1.18-3.51,0-5,2.83-9.6,3.12-10.07a53.64,53.64,0,0,1,11.73-12.93,54.31,54.31,0,0,1,16.31-8.66c7.91-2.5,11.78-1.52,21.59-2.36,8.24-.7,7.59-1.56,24.68-4.86,12.91-2.5,23.48-3.95,44.63-6.85C532.89,166.12,538.16,165.44,541.68,165Z"/><path class="f04410be-f88f-4b72-99b6-e6e2942589e9" d="M569.72,277.4c.22.69,4.38,14,5,21.66.21,2.39.22,4.6.22,4.6-.06,4.17-.91,6.84-1,21.38a119.06,119.06,0,0,1-1.32,16.67,48.38,48.38,0,0,1-1.27,6.05c-.85,2.77-1.44,3.41-1.28,4.65.37,3,4.39,4.73,5.87,5.39,7.48,3.3,15.29,1.08,16.29.79,9.63-2.87,14.78-10.49,22.07-21.25,4.72-7,9.69-14.32,12.33-25.65a55.2,55.2,0,0,0,.91-24.23c-1.73-8.63-5.55-15.63-9.83-23.48-3.34-6.12-4.29-6.7-6.57-11.76-3.29-7.31-3.64-11.32-5.81-18.38A103,103,0,0,0,597,214.09a36.58,36.58,0,0,1-.93,8.2,37.48,37.48,0,0,1-2.63,7.65,111.62,111.62,0,0,0,3.77,21,196.76,196.76,0,0,0,8.13,22.26c3.54,8.34,4.78,10,5.86,15.07a46,46,0,0,1,.53,16.3c-.63,4.09-2.63,8.7-6.64,17.92a100.57,100.57,0,0,1-6.7,12.88c-1.77,2.89-4,6.21-8.08,8.49-1.43.8-3.88,2.17-5.32,1.24-1.73-1.12-.84-4.76-.39-8.89.48-4.38-.13-9.95-1.39-21.09a128.3,128.3,0,0,0-2.53-15.67A108,108,0,0,0,574,279.79Z"/><path class="f04410be-f88f-4b72-99b6-e6e2942589e9" d="M573.93,164.83c-.45.33.57,2.38,3.24,7.47,5.13,9.83,5.27,9.75,6.52,12.3,2.37,4.88,3.7,9.38,6.35,18.39,1.66,5.6,1.94,7.33,1.86,9.48a19.2,19.2,0,0,1-3.53,11.07c-2.47,3.28-4.12,2.75-7.17,7-1.31,1.79-2.7,3.76-2.93,6.49-.18,2,.42,3,1.48,6.56,1.41,4.62,2.12,7,2.15,9.57,0,4.61-2.14,8.1-3.88,10.89a20.17,20.17,0,0,1-7.55,7.66c-2,1.08-4.54,2.46-6.56,1.49s-1.83-3.77-3.39-8.89c-1.32-4.34-2.61-8.58-6-11.58a15.47,15.47,0,0,0-12.84-3.56c-2.81.59-5.18,2.13-9.8,5.15a41,41,0,0,0-3.49,2.4c-2.06,1.72-2.48,2.67-3.66,2.78a4.25,4.25,0,0,1-3.67-2.35c-1.33-2.41.11-5.2,1-7.94a28,28,0,0,0,.58-14.83c-2.06-7.54-11.28-11.1-17.1-13.34a49.21,49.21,0,0,0-25.93-2.36c-.37-4.61.86-7,2.07-8.27,1.56-1.68,2.87-1.35,7.84-3.94,2.91-1.52,4.46-2.32,6.07-4a17.82,17.82,0,0,0,3.81-6.47c2-5.32,1.37-8,2.11-10.92,2.15-8.3,14.15-12.09,20.19-14a49.86,49.86,0,0,1,23.87-1.39,37.09,37.09,0,0,0-8.6-4.1,39.41,39.41,0,0,0-27.44,1.53c-3.61,1.63-8.9,4-12.47,9.4-1.35,2-1.75,3.42-4.38,8.41-2.1,4-4,7.18-5.27,9.28a26.26,26.26,0,0,0-11.75,5.47c-3.7,3.06-5.42,6.28-7.4,9.95-2.48,4.62-5.2,9.69-4.31,16a18.69,18.69,0,0,0,1.85,5.86,31,31,0,0,0,6.52,1.16c5,.35,6.51-.8,11.32-1.23,1.47-.13,10.14-.8,18.14,3.64,3.19,1.77,4.08,3.13,4.36,3.6,2.06,3.42.9,7.59-.18,11.49a46.77,46.77,0,0,1-4,9.47c-2.63,5.05-3.46,5.28-4.19,8.06-.5,1.87-1.68,6.32.72,9.73,1.92,2.71,5.12,3.37,7.36,3.83,1.51.31,6.06,1.05,12.75-1.39,4.59-1.68,8.36-4.36,15.7-9.65,5.38-3.87,7.56-5.82,9.26-5,1.48.73,1.06,2.82,2.35,8.34s2,8.54,4.24,10.67c3.14,2.94,7.69,2.79,12,2.66a30.72,30.72,0,0,0,12.23-3c10.13-4.87,14.47-13.86,15.63-16.36a34.78,34.78,0,0,0,3.25-15.67,34.09,34.09,0,0,0-2.63-12.06,5.88,5.88,0,0,1,.24-3.88c1-2.18,3.3-2.54,5-3.63,4.35-2.8,4.42-10.1,4.46-13.71.05-5.12-1.48-9.08-4.53-16.8-4.31-10.87-8.35-16.79-11.09-23.38a37.31,37.31,0,0,0-2.31-4.65,32.5,32.5,0,0,0-2.85-4.15C577.63,167.34,574.54,164.38,573.93,164.83Z"/><path class="f04410be-f88f-4b72-99b6-e6e2942589e9" d="M581.42,205.23c.25-8.21-5.64-14.26-7-15.65-3.22-3.31-4.85-3.13-7.32-6.48a20.79,20.79,0,0,1-3.73-9.95,25.07,25.07,0,0,1-11.69,1.93c-3.32-.28-4-1.08-8.1-1.54-3.9-.44-8.4-1-12.56,1-4.5,2.16-6.5,6.25-8.47,10.29-1.84,3.78-4.6,9.43-3.08,16.21,1.33,5.91,5.21,9.57,7.93,12.13s5.47,4.1,10.67,6.89c5.9,3.16,8.85,4.74,13.17,5.51A27.59,27.59,0,0,0,564,225.1c2.29-.66,9.56-2.88,14.11-10A19.14,19.14,0,0,0,581.42,205.23Zm-14.48-.4a11.16,11.16,0,0,1-7.15,5.19,10.73,10.73,0,0,1-7-1,11,11,0,0,1-5.21-6.26,12.88,12.88,0,0,1-5.13.44c-1.15-.13-6.29-.73-8.58-4.9-2.64-4.82.82-10.23,1-10.59,2.69-4.06,7.45-5.2,10.17-5.84,3-.73,3.3-.08,6.73-1,5.2-1.33,6.35-3.27,8-2.52,2.31,1.07.44,5.15,3.36,10.65,2,3.81,3.83,3.58,4.84,7A12,12,0,0,1,566.94,204.83Z"/><path class="f04410be-f88f-4b72-99b6-e6e2942589e9" d="M254.54,289.47a6.45,6.45,0,0,0-2.24-2,6.34,6.34,0,0,0-2.87-.88,5.36,5.36,0,0,0-2.52.49,8.34,8.34,0,0,0-2.27,1.66,16.1,16.1,0,0,0-2,2.35c-.58.83-1.17,1.8-1.8,2.9l-13.28,23.63a26,26,0,0,0-1.75,3.71A15.42,15.42,0,0,0,225,325a6.15,6.15,0,0,0,.53,3.35,5.7,5.7,0,0,0,2.45,2.49q5.9,3.31,11.44-6.52l13.29-23.62c.62-1.11,1.13-2.12,1.54-3a16,16,0,0,0,1-2.93,8.23,8.23,0,0,0,.24-2.8A5.42,5.42,0,0,0,254.54,289.47Z"/><path class="f04410be-f88f-4b72-99b6-e6e2942589e9" d="M458,393.44c-5.91-10.59-22.08-20.17-44.38-26.27a104.82,104.82,0,0,0-17-3.18,58.31,58.31,0,0,0-15.57-.17c-3.1.39-23.37,2.93-27.06,13.53a19.61,19.61,0,0,0-.82,7.87,17.6,17.6,0,0,0,2.12,6.36c-1.08-.21-8-1.64-10.87-7.36a15.38,15.38,0,0,1-1.5-5.76,16.46,16.46,0,0,1,.93-6.68A18.94,18.94,0,0,1,349,364.5a28,28,0,0,1,5.62-4.29c13.05-7.66,31.05-8.21,31.05-8.21a83,83,0,0,1,11.23.45l.1-6v0a36.54,36.54,0,0,0-18.82-33L272.23,255.2a36.56,36.56,0,0,0-49.5,14.36l-26.07,47.38A36.53,36.53,0,0,0,211,366.43l105.93,58.3a36.53,36.53,0,0,0,37.52-1.46h0l21.29-14a109.86,109.86,0,0,0,23.79,9.49c13.33,3.65,27.2,4.4,39.07,2.12,11.69-2.25,19.44-7.08,21.26-13.26h0A17.87,17.87,0,0,0,458,393.44Zm-221-54.87q-6,2.48-12.76-1.32a15.45,15.45,0,0,1-6.45-6.42,14.4,14.4,0,0,1-1.42-8.35,25.44,25.44,0,0,1,3.26-9.28L233,289.57q4.28-7.59,10.17-10T255.93,281q6.85,3.87,7.86,10.18t-3.25,13.88L247.25,328.7Q243.08,336.11,237.06,338.57Zm12.16,12,24.36-43.31-5.91-3.32L271,298q7.13,1.22,11.19-1.47l5.91,3.32-31,55.12Zm41,17.93q-6,2.46-12.76-1.32a15.42,15.42,0,0,1-6.45-6.43,14.36,14.36,0,0,1-1.42-8.34,25.3,25.3,0,0,1,3.26-9.29l13.29-23.62q4.28-7.59,10.16-10t12.79,1.46q6.85,3.85,7.86,10.17T313.69,335L300.4,358.59Q296.23,366,290.21,368.47Zm20,16.39-7.87-4.43,24.36-43.3-5.91-3.33,3.33-5.9q7.13,1.22,11.19-1.48l5.91,3.32Zm62.61-6a15.32,15.32,0,0,1-2,5.29,17.6,17.6,0,0,1-9.09,7.28,17.77,17.77,0,0,1-2.66-5.45,9.32,9.32,0,0,1-.46-4.54,8.74,8.74,0,0,1,1.37-3.19,14,14,0,0,1,4.2-4.12,18.94,18.94,0,0,1,7.6-2.95A14.44,14.44,0,0,1,372.85,378.87ZM454.48,406c-1,3.22-5.43,6.24-12.21,8.21-10,2.9-25.09,3.51-41.25-.91a107.37,107.37,0,0,1-19.91-7.6l12.11-8a8.24,8.24,0,0,0,2.95-5.41l.41-22.71a102.2,102.2,0,0,1,15.59,3c20.54,5.62,35.85,14.44,41,23.58a12.28,12.28,0,0,1,1.35,9.82Z"/><path class="f04410be-f88f-4b72-99b6-e6e2942589e9" d="M307.69,319.37a7.1,7.1,0,0,0-5.11-2.87,5.22,5.22,0,0,0-2.52.48,8.4,8.4,0,0,0-2.27,1.66,16.72,16.72,0,0,0-2,2.36c-.58.83-1.17,1.79-1.8,2.9l-13.28,23.62a25.63,25.63,0,0,0-1.75,3.72,15.22,15.22,0,0,0-.86,3.6,6.19,6.19,0,0,0,.53,3.36,5.73,5.73,0,0,0,2.44,2.49q5.91,3.31,11.45-6.52l13.28-23.63c.63-1.1,1.14-2.12,1.55-3a17.08,17.08,0,0,0,1-2.93,8.27,8.27,0,0,0,.24-2.81A5.34,5.34,0,0,0,307.69,319.37Z"/><text class="f5972510-6ef6-417e-8dfc-edb58552e86e" transform="translate(0 870.44)"><tspan class="f93b73ca-4a8f-42e3-b541-557d05303b7e">C</tspan><tspan x="116.23" y="0">olBiológica</tspan></text></svg>