<svg id="b37b1662-562f-4eaa-9338-39a406c825cd" data-name="Capa 1" xmlns="http://www.w3.org/2000/svg" viewBox="0 0 611.81 705.7"><defs><style>.a3e1c83d-e992-473c-8a11-af883c8fb90b{fill:#068d4c;}</style></defs><path class="a3e1c83d-e992-473c-8a11-af883c8fb90b" d="M319.83,280.05c-7.41,7.38-40,40.62-55.12,82.78-7.78,21.69-10.93,45.7-11.13,47.26A200.66,200.66,0,0,0,252,434a146.28,146.28,0,0,0,1.65,23.12c2.29,15.43,7.51,30.47,14,44.4,1.5,3.55,3.32,6.94,4.87,10.42,1.8,3.38,3.31,6.88,5.12,10.22.85,1.7,1.72,3.39,2.53,5.11s1.83,3.34,2.66,5.06l1.27,2.56,1.38,2.5,2.68,5.08c1.9,3.32,3.65,6.78,5.73,10,1,1.66,1.93,3.37,3,5s2.13,3.25,3.13,5c4.24,6.59,8.76,13.13,13.54,19.69,9.64,13.11,20.5,25.84,32.41,39.74l0,0a2.5,2.5,0,0,1-.28,3.52,2.47,2.47,0,0,1-1.91.58c-18.62-2.2-36.19-9.46-52.27-19.35a164,164,0,0,1-22.66-17.24c-3.53-3.23-6.9-6.62-10.17-10.15-1.66-1.74-3.23-3.56-4.74-5.42l-4.6-5.58a144.72,144.72,0,0,1-25.27-51.58c-1.26-4.64-2.23-9.34-3.2-14-.82-4.72-1.6-9.42-2.19-14.15-1.22-9.43-1.89-18.88-2.23-28.38a183.32,183.32,0,0,1,1.46-28.58,230.71,230.71,0,0,1,5.22-27.37,219.33,219.33,0,0,1,20.38-51.08c24.88-45.91,68.79-93.67,77-88.3C322.15,265.86,323,269.32,319.83,280.05Z"/><path class="a3e1c83d-e992-473c-8a11-af883c8fb90b" d="M200.6,523.49c8.47,39.84,24,62.55,24,62.55,22.77,33.37,43.13,63.2,84.28,87.85,12.18,7.3,38.57,22.77,76.74,28.89,16.31,2.62,66.57,10,120.36-16.9C578.75,649.55,601.12,579,604,569.33c2.72-9.07,24.75-87.16-20.07-154.4-6.67-10-25.9-38.07-62.87-55.71a144.84,144.84,0,0,0-60.87-14.35c-10.76,0-42.3.44-73.51,21.58-38.63,26.15-50,65.89-53.2,80.49-2.73,12.4-9.16,43.7,6.39,77.21A109.89,109.89,0,0,0,379,569.61a93.55,93.55,0,0,0,37.77,15.06,89.73,89.73,0,0,0,45-4.44c8.13-3.14,28.41-12.43,41.83-34.83,2.43-4.06,19.74-34.08,7.63-68.15-2.42-6.81-9.79-26.62-30.56-38.19-5-2.79-22.21-12.38-43.21-6.52-18.87,5.27-28.6,19.62-31.52,24.45-2.7,4.45-8.38,14.11-7.8,27.4.14,3.29,1.31,21.7,16.55,32.78,2.76,2,11.56,8.2,23.75,7.2,2.88-.23,15.19-1.24,22.45-11.64,5.53-7.92,4.77-16.45,4.49-19.18-.38-3.6-1.25-12-8-16.69a17.58,17.58,0,0,0-9.75-3,15.41,15.41,0,0,0-8.5,2.46c-1.33.88-5,3.32-5.75,7.32-.54,3.07,1.2,4.05.64,7.91-.2,1.35-.57,3.91-2.41,5.48-3.53,3-11.12,1.28-13.7-3-.36-.6-.92-1.74-.94-6.38,0-3.19,0-7.9,1.17-11.86,3.29-10.92,15.76-16.34,17.57-17.1,2-.83,14.1-5.68,27.07.19,13.15,6,17.49,18.54,18.94,22.74,6.33,18.32-2.38,34.5-4.41,38-1.92,3.35-11,18.14-29.1,22.62-23.61,5.82-42.49-10.84-46.89-14.72a61.35,61.35,0,0,1-19-31.25c-7.45-31.05,13.64-55.78,16.8-59.36,18.09-20.53,41.93-23.44,46.43-23.91,29.49-3.05,50.16,13.56,55.72,18,20.06,16.12,26.39,36.85,28.45,44,10.64,36.66-5.48,68-11.24,77.89-5.1,8.74-21.83,34.48-54.56,45.83-50.45,17.51-98.31-13.25-115.38-32.08a132.37,132.37,0,0,1-20.49-30.32c-5.37-11.81-8.06-17.71-8.91-22.78a21.43,21.43,0,0,0-2.46-7.29,22.93,22.93,0,0,0-7.33-7.57C296.22,490,277.7,487.3,277.7,487.3c-19.71-2.81-42.33-2.05-55.33,4.17a92.84,92.84,0,0,0-14.23,8.91c-2.86,2.15-4.31,3.26-5.48,4.86C198.63,510.72,199.46,518.14,200.6,523.49Z"/><path class="a3e1c83d-e992-473c-8a11-af883c8fb90b" d="M382.12,131.18c-1.8-.48,3.54-26.62,8.13-45.19,2.57-10.38,10-39,21.57-56.9,2.16-3.34,4.66-6.59,9.58-13C427.74,7.84,429.83,5.77,432.89,4A25.64,25.64,0,0,1,443.81.53c1.81-.12,6.35-.21,14.43,3.5s16.17,7.41,21.12,16.32c4.62,8.3,4.14,16.74,3.92,20.73a45.3,45.3,0,0,1-2.22,11.54c-8.85,27.39-33.62,54-33.62,54a230.42,230.42,0,0,1-43.33,36.24c11-11.3,19.59-21.32,25.63-28.75,13.34-16.44,21.62-29.22,28.12-41.25,11.31-20.93,11.26-28.52,10.34-33.58-.16-.87-2.72-13.95-12.93-20.09-1.78-1.06-5.87-3.51-10.65-2.64a13.31,13.31,0,0,0-6.42,3.35C427,29.8,415.37,53.38,414.05,56.07c-9.2,18.67-7.94,15.57-9.58,19.28-5,11.18-6.33,16.49-13.92,36.18C385.45,124.77,382.88,131.38,382.12,131.18Z"/><path class="a3e1c83d-e992-473c-8a11-af883c8fb90b" d="M382.67,163.08c-.36-.37,5.64-9.27,15.46-16.89,23.68-18.38,52.45-16.07,56.26-15.72a85.93,85.93,0,0,1,25.51,6.59,93.78,93.78,0,0,1,19.62,11.08,98.35,98.35,0,0,1,26.51-.46c7.53.9,13.69,1.63,20.41,5.27,10.31,5.58,15.76,14.65,18.41,20.25a31.76,31.76,0,0,1,10.52,4.59c3.59,2.41,6.82,4.28,8,7.72,1.35,3.9-.5,7.81-2.3,11.27-9.12,17.55-13.68,26.33-23.45,30.55-2.77,1.2-9.3,3.91-17.17,2.2-2.72-.59-7.39-1.6-11-5.34-1.3-1.35-2.59-3.16-7-8-1.53-1.69-2.42-2.63-3.84-2.88-2.65-.48-5.11,1.94-6.77,3.6a28.93,28.93,0,0,0-5.43,7.86c-3.22,6-9.09,8.69-15.37,11.6-9.75,4.51-18.47,4.26-23.92,4-11.91-.49-20.55-4.35-26.21-6.95a86.33,86.33,0,0,1-21.51-14.3,104.69,104.69,0,0,1-20.64-24.53,149.14,149.14,0,0,0,15.86,14c14.3,11,29.64,22.68,48.77,21.79a57,57,0,0,0,22.36-6.18,29.5,29.5,0,0,0,8.4-5.87c2.62-2.72,2.36-3.67,6.14-8.39a37.71,37.71,0,0,1,7.54-7.65c2.59-1.89,4.24-3.1,6.77-3.61,5-1,9.28,1.57,11.44,2.84,2.72,1.6,2.45,2.18,8.37,7,5.65,4.62,7,5,8.05,5.07,3.2.29,5.71-1.63,8.71-3.92,2.11-1.61,3-2.73,9.37-11.16,3.4-4.5,5.1-6.77,4.72-8.23-.65-2.54-4-2.57-8-5.08-6.2-3.86-4.56-7.75-10.55-13.94-1.25-1.29-10.53-10.64-20.53-9.34-3.17.41-5.08,1.73-9,1.1-4.46-.72-4.79-2.83-8.26-3-5.12-.2-6.43,4.32-11.37,3.88-2.45-.21-4.16-1.5-7-3.64-3.45-2.59-4.46-4.59-6.95-7.18-3.29-3.42-6.47-5.1-10.49-7.23a55.75,55.75,0,0,0-23.58-6c-14.23-.68-25.81,3.7-31.54,5.86-2.31.88-5.8,2.34-12.8,4.92-6.7,2.49-7.24,2.53-9.42,3.57C387.41,158.22,383,163.38,382.67,163.08Z"/><path class="a3e1c83d-e992-473c-8a11-af883c8fb90b" d="M356.22,160c.11-.61-6.58-2-13.89-4.1A170,170,0,0,1,309.51,142c-14-7.85-24.82-13.93-32.44-26.66-3-5.08-7-11.74-7.1-20.61,0-3.37.54-4.67.94-14.65.24-5.86.2-9.29-1-13.44-1.45-4.91-3.49-7.2-4.29-8-1.82-1.87-3.22-2.34-5.25-3.62-4.16-2.62-6.43-5.8-9.21-9.68-3-4.25-7.2-10.07-6.28-16.18.16-1,.54-3.39,2.19-4.21,1.31-.65,2.1.35,4.59.17,2.69-.21,3.1-1.48,5.41-1.42a7.83,7.83,0,0,1,4.13,1.48,12.87,12.87,0,0,1,4.59,5.72c.63,1.4,3.53,5.23,9.34,12.87,6.57,8.67,15.43,12.87,18.41,14.25,6.71,3.1,12.33,3.81,22.71,5.13,10.77,1.37,9.95,0,15.18,1.21,15.44,3.48,25,15.63,27.87,19.61,4.51,6.3,6.49,12.15,8.46,18,1.07,3.17,2.26,8.85,4.63,20.22,2.55,12.24,2.87,14.84,2.71,18.32A42.75,42.75,0,0,1,371.76,155a28.68,28.68,0,0,0,5.52-8.48c1.8-4.3,2.08-8.07,2.15-13.13.11-7.77.19-13.27-1.06-21.93-1-7.06-2.25-15.43-6.49-25.63-2.8-6.73-5.4-12.81-11.36-18.82a48.73,48.73,0,0,0-12.85-9.12,53.51,53.51,0,0,0-19.51-6.14c-6.39-.67-7.58.49-13.42-.75a44.07,44.07,0,0,1-12.37-4.87c-6-3.18-13.26-7.05-18.59-14.78-3.16-4.6-2.76-6.37-7.31-12.49-2.6-3.49-4.52-6.08-7.56-8.16-6.41-4.39-14.05-4-18.32-3.29a26.21,26.21,0,0,0-12.2-4.79c-6.11-.65-9.87,1.42-16.87-.09A28,28,0,0,1,214.58,0c1.17,1.89,2.88,4.69,4.91,8.12,5,8.56,7.6,12.92,8.83,16.83,1.52,4.87.36,4.41,2.35,13,1.53,6.58,2.29,9.87,4.47,13.67a28.39,28.39,0,0,0,9.64,10.58c4.81,3,7.37,2.17,9.55,5.18,1.89,2.63,1.53,5.44,1.34,10.27a166.64,166.64,0,0,0,.42,18c.81,9.73,5.36,16.82,8.14,21.15,5.55,8.65,11.86,13,21.07,19.42a135.67,135.67,0,0,0,33.05,16.51,127.37,127.37,0,0,0,20.84,5.72C347.3,160,356.1,160.71,356.22,160Z"/><path class="a3e1c83d-e992-473c-8a11-af883c8fb90b" d="M349.52,165a242.18,242.18,0,0,0-37.46-3.11,203.8,203.8,0,0,0-26.12,1.44c-7,.88-12.84,2-17.28,3A56.28,56.28,0,0,0,246.84,164c-24,2.22-37.89,19.51-39.84,22a50.93,50.93,0,0,0-10.7,23.15c-3.88,22.85,10.51,40.47,13.09,43.54l6.15-11.5c5.81-10.87,5.76-10.79,5.87-11,4.86-8.62,11.17-13.83,21.15-22.06,0,0,6.94-5.73,21-13.45a17.66,17.66,0,0,1,8.65-2.52c3.28,0,5.77,1.19,9,2.66a44.87,44.87,0,0,1,9,5.58,8.62,8.62,0,0,0-1-3.33,9.22,9.22,0,0,0-3.05-3.14c-6.3-4.29-9.46-6.43-14.15-7.25-4.88-.84-8.54.15-13.71,1.55-6.79,1.84-11.16,4.35-19.9,9.36-6.25,3.59-10.1,5.83-14.73,9.93a67.13,67.13,0,0,0-7.91,8.35,2.61,2.61,0,0,1-2.25.28c-1.13-.57-1.17-2.43-1.18-3.51-.05-5,2.82-9.6,3.11-10.07a53.59,53.59,0,0,1,11.74-12.93,54.18,54.18,0,0,1,16.3-8.66c7.91-2.5,11.78-1.52,21.59-2.36,8.24-.7,7.59-1.56,24.68-4.86,12.91-2.5,23.48-3.95,44.63-6.85C340.73,166.12,346,165.44,349.52,165Z"/><path class="a3e1c83d-e992-473c-8a11-af883c8fb90b" d="M377.55,277.4c.22.69,4.38,14,5.06,21.66.21,2.39.21,4.6.21,4.6-.06,4.17-.91,6.84-1,21.38a119.83,119.83,0,0,1-1.33,16.67,46.61,46.61,0,0,1-1.27,6.05c-.85,2.77-1.44,3.41-1.28,4.65.37,3,4.4,4.73,5.88,5.39,7.47,3.3,15.28,1.08,16.28.79,9.63-2.87,14.79-10.49,22.07-21.25,4.72-7,9.69-14.32,12.33-25.65a55.2,55.2,0,0,0,.91-24.23c-1.73-8.63-5.55-15.63-9.83-23.48-3.34-6.12-4.29-6.7-6.57-11.76-3.28-7.31-3.64-11.32-5.81-18.38a103,103,0,0,0-8.43-19.75,37.12,37.12,0,0,1-3.56,15.85,111.62,111.62,0,0,0,3.77,21,196.76,196.76,0,0,0,8.13,22.26c3.54,8.34,4.79,10,5.86,15.07a46.4,46.4,0,0,1,.54,16.3c-.64,4.09-2.64,8.7-6.65,17.92a100.07,100.07,0,0,1-6.69,12.88c-1.78,2.89-4,6.21-8.09,8.49-1.43.8-3.87,2.17-5.32,1.24-1.72-1.12-.84-4.76-.39-8.89.48-4.38-.13-9.95-1.39-21.09a124.51,124.51,0,0,0-2.53-15.67,107.19,107.19,0,0,0-6.65-19.65Z"/><path class="a3e1c83d-e992-473c-8a11-af883c8fb90b" d="M381.76,164.83c-.44.33.58,2.38,3.24,7.47,5.14,9.83,5.28,9.75,6.52,12.3,2.38,4.88,3.7,9.38,6.36,18.39,1.65,5.6,1.93,7.33,1.86,9.48a19.28,19.28,0,0,1-3.53,11.07c-2.48,3.28-4.13,2.75-7.18,7-1.31,1.79-2.7,3.76-2.93,6.49-.18,2,.42,3,1.49,6.56,1.4,4.62,2.12,7,2.14,9.57,0,4.61-2.14,8.1-3.88,10.89a20.21,20.21,0,0,1-7.54,7.66c-2,1.08-4.55,2.46-6.56,1.49s-1.84-3.77-3.4-8.89c-1.31-4.34-2.6-8.58-6-11.58a15.47,15.47,0,0,0-12.84-3.56c-2.81.59-5.18,2.13-9.8,5.15a41,41,0,0,0-3.49,2.4c-2.06,1.72-2.48,2.67-3.66,2.78-1.43.14-2.95-1-3.67-2.35-1.33-2.41.12-5.2,1-7.94a28.13,28.13,0,0,0,.59-14.83c-2.07-7.54-11.28-11.1-17.11-13.34a49.2,49.2,0,0,0-25.93-2.36c-.37-4.61.86-7,2.07-8.27,1.57-1.68,2.88-1.35,7.84-3.94,2.92-1.52,4.46-2.32,6.07-4a17.53,17.53,0,0,0,3.81-6.47c2-5.32,1.37-8,2.12-10.92,2.14-8.3,14.14-12.09,20.18-14a49.9,49.9,0,0,1,23.88-1.39,37.2,37.2,0,0,0-8.61-4.1,39.41,39.41,0,0,0-27.44,1.53c-3.61,1.63-8.89,4-12.47,9.4-1.34,2-1.75,3.42-4.37,8.41-2.1,4-4,7.18-5.27,9.28a26.16,26.16,0,0,0-11.75,5.47c-3.7,3.06-5.43,6.28-7.4,9.95-2.48,4.62-5.2,9.69-4.32,16a18.69,18.69,0,0,0,1.85,5.86,31,31,0,0,0,6.52,1.16c5,.35,6.51-.8,11.33-1.23,1.46-.13,10.14-.8,18.14,3.64,3.19,1.77,4.07,3.13,4.36,3.6,2.05,3.42.9,7.59-.18,11.49a46.23,46.23,0,0,1-4,9.47c-2.63,5.05-3.46,5.28-4.19,8.06-.49,1.87-1.67,6.32.73,9.73,1.91,2.71,5.11,3.37,7.36,3.83,1.51.31,6.06,1.05,12.74-1.39,4.6-1.68,8.36-4.36,15.7-9.65,5.38-3.87,7.57-5.82,9.27-5,1.48.73,1.05,2.82,2.34,8.34s2,8.54,4.25,10.67c3.13,2.94,7.68,2.79,12,2.66a30.79,30.79,0,0,0,12.24-3c10.13-4.87,14.47-13.86,15.63-16.36a34.93,34.93,0,0,0,3.25-15.67,34.28,34.28,0,0,0-2.64-12.06,6,6,0,0,1,.24-3.88c1-2.18,3.3-2.54,5-3.63,4.35-2.8,4.43-10.1,4.46-13.71.05-5.12-1.48-9.08-4.53-16.8-4.31-10.87-8.35-16.79-11.09-23.38a37.31,37.31,0,0,0-2.31-4.65,31.4,31.4,0,0,0-2.85-4.15C385.46,167.34,382.37,164.38,381.76,164.83Z"/><path class="a3e1c83d-e992-473c-8a11-af883c8fb90b" d="M389.25,205.23c.25-8.21-5.64-14.26-7-15.65-3.22-3.31-4.85-3.13-7.31-6.48a20.69,20.69,0,0,1-3.73-9.95,25.09,25.09,0,0,1-11.69,1.93c-3.33-.28-4-1.08-8.11-1.54-3.89-.44-8.4-1-12.56,1-4.5,2.16-6.49,6.25-8.46,10.29-1.85,3.78-4.61,9.43-3.09,16.21,1.33,5.91,5.21,9.57,7.94,12.13s5.46,4.1,10.67,6.89c5.89,3.16,8.84,4.74,13.16,5.51a27.59,27.59,0,0,0,12.73-.51c2.3-.66,9.56-2.88,14.12-10A19.15,19.15,0,0,0,389.25,205.23Zm-14.48-.4a11.16,11.16,0,0,1-7.15,5.19,10.73,10.73,0,0,1-7.05-1,10.92,10.92,0,0,1-5.2-6.26,12.92,12.92,0,0,1-5.13.44c-1.15-.13-6.3-.73-8.58-4.9-2.64-4.82.81-10.23,1-10.59,2.68-4.06,7.44-5.2,10.16-5.84,3-.73,3.3-.08,6.73-1,5.2-1.33,6.35-3.27,8-2.52,2.31,1.07.45,5.15,3.37,10.65,2,3.81,3.82,3.58,4.83,7A12,12,0,0,1,374.77,204.83Z"/><path class="a3e1c83d-e992-473c-8a11-af883c8fb90b" d="M62.37,289.47a6.45,6.45,0,0,0-2.24-2,6.34,6.34,0,0,0-2.87-.88,5.39,5.39,0,0,0-2.52.49,8.34,8.34,0,0,0-2.27,1.66,16.1,16.1,0,0,0-2,2.35c-.57.83-1.17,1.8-1.79,2.9L35.4,317.63a26,26,0,0,0-1.75,3.71A15.39,15.39,0,0,0,32.8,325a6.06,6.06,0,0,0,.52,3.35,5.7,5.7,0,0,0,2.45,2.49q5.91,3.31,11.44-6.52L60.5,300.65c.62-1.11,1.13-2.12,1.54-3a16,16,0,0,0,1-2.93,8.23,8.23,0,0,0,.24-2.8A5.3,5.3,0,0,0,62.37,289.47Z"/><path class="a3e1c83d-e992-473c-8a11-af883c8fb90b" d="M265.86,393.44c-5.9-10.59-22.08-20.17-44.38-26.27a104.62,104.62,0,0,0-17-3.18,58.23,58.23,0,0,0-15.56-.17c-3.11.39-23.38,2.93-27.07,13.53a19.51,19.51,0,0,0-.81,7.87,17.43,17.43,0,0,0,2.11,6.36c-1.08-.21-8-1.64-10.87-7.36a15.59,15.59,0,0,1-1.5-5.76,16.35,16.35,0,0,1,.94-6.68,18.82,18.82,0,0,1,5.07-7.28,28.54,28.54,0,0,1,5.62-4.29c13.05-7.66,31.05-8.21,31.05-8.21a83,83,0,0,1,11.23.45l.1-6v0a36.54,36.54,0,0,0-18.82-33L80.06,255.2a36.56,36.56,0,0,0-49.5,14.36L4.49,316.94a36.55,36.55,0,0,0,14.35,49.49l105.94,58.3a36.51,36.51,0,0,0,37.51-1.46h0l21.29-14a110.06,110.06,0,0,0,23.79,9.49c13.33,3.65,27.2,4.4,39.07,2.12,11.69-2.25,19.44-7.08,21.26-13.26h0A17.83,17.83,0,0,0,265.86,393.44Zm-221-54.87q-6,2.48-12.76-1.32a15.37,15.37,0,0,1-6.44-6.42,14.32,14.32,0,0,1-1.42-8.35,25.08,25.08,0,0,1,3.26-9.28l13.28-23.63q4.27-7.59,10.17-10T63.76,281q6.85,3.87,7.86,10.18t-3.25,13.88L55.08,328.7Q50.91,336.11,44.89,338.57Zm12.16,12,24.36-43.31-5.9-3.32L78.83,298Q86,299.22,90,296.53l5.91,3.32L64.93,355Zm41,17.93q-6,2.46-12.76-1.32a15.42,15.42,0,0,1-6.45-6.43,14.36,14.36,0,0,1-1.41-8.34,25.27,25.27,0,0,1,3.25-9.29L94,319.47q4.28-7.59,10.17-10t12.78,1.46q6.86,3.85,7.86,10.17T121.52,335l-13.29,23.62Q104.06,366,98,368.47Zm20,16.39-7.88-4.43,24.36-43.3-5.9-3.33,3.32-5.9q7.13,1.22,11.19-1.48l5.91,3.32Zm62.6-6a14.87,14.87,0,0,1-2,5.29,17.56,17.56,0,0,1-9.09,7.28A17.47,17.47,0,0,1,167,386a9.2,9.2,0,0,1-.47-4.54,8.57,8.57,0,0,1,1.38-3.19,14,14,0,0,1,4.19-4.12,18.92,18.92,0,0,1,7.61-2.95A14.46,14.46,0,0,1,180.68,378.87ZM262.31,406c-.95,3.22-5.43,6.24-12.21,8.21-10,2.9-25.08,3.51-41.24-.91a107.2,107.2,0,0,1-19.92-7.6l12.11-8a8.3,8.3,0,0,0,3-5.41l.4-22.71a102.2,102.2,0,0,1,15.59,3c20.54,5.62,35.86,14.44,41,23.58a12.24,12.24,0,0,1,1.35,9.82Z"/><path class="a3e1c83d-e992-473c-8a11-af883c8fb90b" d="M115.52,319.37a7,7,0,0,0-5.11-2.87,5.26,5.26,0,0,0-2.52.48,8.56,8.56,0,0,0-2.27,1.66,16.72,16.72,0,0,0-2,2.36c-.58.83-1.17,1.79-1.79,2.9L88.55,347.52a25.63,25.63,0,0,0-1.75,3.72,15.2,15.2,0,0,0-.85,3.6,6.09,6.09,0,0,0,.52,3.36,5.7,5.7,0,0,0,2.45,2.49q5.89,3.31,11.44-6.52l13.29-23.63c.62-1.1,1.13-2.12,1.54-3a16.26,16.26,0,0,0,1-2.93,8.27,8.27,0,0,0,.24-2.81A5.23,5.23,0,0,0,115.52,319.37Z"/></svg>